# xmcd
#
# Track frame offsets: 
#        150
#        17457
#        33839
#        49158
#
# Disc length: 911 seconds
#
# Revision: 0
# Processed by: cddbd v1.5.2PL0 Copyright (c) Steve Scherf et al.
# Submitted via: ExactAudioCopy v0.95a5
#
DISCID=23038d04
DTITLE=In Battle - Soul Metamorphosis EP
DYEAR=2004
DGENRE=Symphonic War Metal
TTITLE0=Pioneers of A Dead Future
TTITLE1=Dawn of Darkness
TTITLE2=Soul Metamorphosis
TTITLE3=King God
EXTD=
EXTT0=
EXTT1=
EXTT2=
EXTT3=
PLAYORDER=
